<mxfile host="app.diagrams.net" agent="Mozilla/5.0 (Windows NT 10.0; Win64; x64) AppleWebKit/537.36 (KHTML, like Gecko) Chrome/132.0.0.0 Safari/537.36 OPR/117.0.0.0" version="26.2.8">
  <diagram name="Página-1" id="ToRZsyHW3nH4Wx62c5p8">
    <mxGraphModel dx="2224" dy="1385" grid="1" gridSize="10" guides="1" tooltips="1" connect="1" arrows="1" fold="1" page="0" pageScale="1" pageWidth="827" pageHeight="1169" math="0" shadow="0">
      <root>
        <mxCell id="0" />
        <mxCell id="1" parent="0" />
        <mxCell id="KqVxqA2QlJHIxRDLTxVt-6" value="" style="edgeStyle=orthogonalEdgeStyle;rounded=0;orthogonalLoop=1;jettySize=auto;html=1;" edge="1" parent="1" source="KqVxqA2QlJHIxRDLTxVt-1" target="KqVxqA2QlJHIxRDLTxVt-5">
          <mxGeometry relative="1" as="geometry" />
        </mxCell>
        <mxCell id="KqVxqA2QlJHIxRDLTxVt-8" value="" style="edgeStyle=orthogonalEdgeStyle;rounded=0;orthogonalLoop=1;jettySize=auto;html=1;" edge="1" parent="1" source="KqVxqA2QlJHIxRDLTxVt-1" target="KqVxqA2QlJHIxRDLTxVt-7">
          <mxGeometry relative="1" as="geometry" />
        </mxCell>
        <mxCell id="KqVxqA2QlJHIxRDLTxVt-46" value="" style="edgeStyle=orthogonalEdgeStyle;rounded=0;orthogonalLoop=1;jettySize=auto;html=1;" edge="1" parent="1" source="KqVxqA2QlJHIxRDLTxVt-1" target="KqVxqA2QlJHIxRDLTxVt-45">
          <mxGeometry relative="1" as="geometry" />
        </mxCell>
        <mxCell id="KqVxqA2QlJHIxRDLTxVt-1" value="&lt;font style=&quot;color: light-dark(rgb(0, 0, 0), rgb(0, 0, 0));&quot;&gt;ESCOLA&lt;/font&gt;" style="whiteSpace=wrap;html=1;fillColor=light-dark(#FFFFFF,#FFFFFF);" vertex="1" parent="1">
          <mxGeometry x="390" y="-210" width="120" height="60" as="geometry" />
        </mxCell>
        <mxCell id="KqVxqA2QlJHIxRDLTxVt-27" value="" style="edgeStyle=orthogonalEdgeStyle;rounded=0;orthogonalLoop=1;jettySize=auto;html=1;" edge="1" parent="1" source="KqVxqA2QlJHIxRDLTxVt-5" target="KqVxqA2QlJHIxRDLTxVt-26">
          <mxGeometry relative="1" as="geometry" />
        </mxCell>
        <mxCell id="KqVxqA2QlJHIxRDLTxVt-5" value="&lt;font style=&quot;color: light-dark(rgb(0, 0, 0), rgb(0, 0, 0));&quot;&gt;CURSO&lt;/font&gt;" style="whiteSpace=wrap;html=1;fillColor=light-dark(#FFFFFF,#FFFFFF);" vertex="1" parent="1">
          <mxGeometry x="760" y="-80" width="120" height="60" as="geometry" />
        </mxCell>
        <mxCell id="KqVxqA2QlJHIxRDLTxVt-10" style="edgeStyle=orthogonalEdgeStyle;rounded=0;orthogonalLoop=1;jettySize=auto;html=1;entryX=1;entryY=0.5;entryDx=0;entryDy=0;" edge="1" parent="1" source="KqVxqA2QlJHIxRDLTxVt-7" target="KqVxqA2QlJHIxRDLTxVt-9">
          <mxGeometry relative="1" as="geometry" />
        </mxCell>
        <mxCell id="KqVxqA2QlJHIxRDLTxVt-7" value="PESSOA" style="whiteSpace=wrap;html=1;fillColor=light-dark(#FFFFFF,#FFFFFF);fontColor=light-dark(#000000,#000000);" vertex="1" parent="1">
          <mxGeometry x="10" y="-70" width="120" height="60" as="geometry" />
        </mxCell>
        <mxCell id="KqVxqA2QlJHIxRDLTxVt-12" value="" style="edgeStyle=orthogonalEdgeStyle;rounded=0;orthogonalLoop=1;jettySize=auto;html=1;" edge="1" parent="1" source="KqVxqA2QlJHIxRDLTxVt-9" target="KqVxqA2QlJHIxRDLTxVt-11">
          <mxGeometry relative="1" as="geometry" />
        </mxCell>
        <mxCell id="KqVxqA2QlJHIxRDLTxVt-14" value="" style="edgeStyle=orthogonalEdgeStyle;rounded=0;orthogonalLoop=1;jettySize=auto;html=1;" edge="1" parent="1" source="KqVxqA2QlJHIxRDLTxVt-9" target="KqVxqA2QlJHIxRDLTxVt-13">
          <mxGeometry relative="1" as="geometry">
            <Array as="points">
              <mxPoint x="220" y="75" />
            </Array>
          </mxGeometry>
        </mxCell>
        <mxCell id="KqVxqA2QlJHIxRDLTxVt-18" value="" style="edgeStyle=orthogonalEdgeStyle;rounded=0;orthogonalLoop=1;jettySize=auto;html=1;" edge="1" parent="1" source="KqVxqA2QlJHIxRDLTxVt-9" target="KqVxqA2QlJHIxRDLTxVt-17">
          <mxGeometry relative="1" as="geometry" />
        </mxCell>
        <mxCell id="KqVxqA2QlJHIxRDLTxVt-9" value="" style="triangle;whiteSpace=wrap;html=1;rotation=-90;fillColor=light-dark(#FFFFFF,#FFFFFF);" vertex="1" parent="1">
          <mxGeometry x="40" y="35" width="60" height="80" as="geometry" />
        </mxCell>
        <mxCell id="KqVxqA2QlJHIxRDLTxVt-21" value="" style="edgeStyle=orthogonalEdgeStyle;rounded=0;orthogonalLoop=1;jettySize=auto;html=1;" edge="1" parent="1" source="KqVxqA2QlJHIxRDLTxVt-11" target="KqVxqA2QlJHIxRDLTxVt-20">
          <mxGeometry relative="1" as="geometry" />
        </mxCell>
        <mxCell id="KqVxqA2QlJHIxRDLTxVt-11" value="&lt;font style=&quot;color: light-dark(rgb(0, 0, 0), rgb(0, 0, 0));&quot;&gt;FUNCIONÁRIO&lt;/font&gt;&lt;div&gt;&lt;font style=&quot;color: light-dark(rgb(0, 0, 0), rgb(0, 0, 0));&quot;&gt;ADM&lt;/font&gt;&lt;/div&gt;" style="whiteSpace=wrap;html=1;fillColor=light-dark(#FFFFFF,#FFFFFF);" vertex="1" parent="1">
          <mxGeometry x="10" y="190" width="120" height="60" as="geometry" />
        </mxCell>
        <mxCell id="KqVxqA2QlJHIxRDLTxVt-23" value="" style="edgeStyle=orthogonalEdgeStyle;rounded=0;orthogonalLoop=1;jettySize=auto;html=1;" edge="1" parent="1" source="KqVxqA2QlJHIxRDLTxVt-13" target="KqVxqA2QlJHIxRDLTxVt-22">
          <mxGeometry relative="1" as="geometry" />
        </mxCell>
        <mxCell id="KqVxqA2QlJHIxRDLTxVt-52" value="" style="edgeStyle=orthogonalEdgeStyle;rounded=0;orthogonalLoop=1;jettySize=auto;html=1;" edge="1" parent="1" source="KqVxqA2QlJHIxRDLTxVt-13" target="KqVxqA2QlJHIxRDLTxVt-51">
          <mxGeometry relative="1" as="geometry" />
        </mxCell>
        <mxCell id="KqVxqA2QlJHIxRDLTxVt-13" value="&lt;font style=&quot;color: light-dark(rgb(0, 0, 0), rgb(0, 0, 0));&quot;&gt;ALUNO&lt;/font&gt;" style="whiteSpace=wrap;html=1;fillColor=light-dark(#FFFFFF,#FFFFFF);" vertex="1" parent="1">
          <mxGeometry x="190" y="190" width="120" height="60" as="geometry" />
        </mxCell>
        <mxCell id="KqVxqA2QlJHIxRDLTxVt-36" value="" style="edgeStyle=orthogonalEdgeStyle;rounded=0;orthogonalLoop=1;jettySize=auto;html=1;" edge="1" parent="1" source="KqVxqA2QlJHIxRDLTxVt-17" target="KqVxqA2QlJHIxRDLTxVt-35">
          <mxGeometry relative="1" as="geometry">
            <Array as="points">
              <mxPoint x="-70" y="630" />
            </Array>
          </mxGeometry>
        </mxCell>
        <mxCell id="KqVxqA2QlJHIxRDLTxVt-42" value="" style="edgeStyle=orthogonalEdgeStyle;rounded=0;orthogonalLoop=1;jettySize=auto;html=1;" edge="1" parent="1" source="KqVxqA2QlJHIxRDLTxVt-17" target="KqVxqA2QlJHIxRDLTxVt-41">
          <mxGeometry relative="1" as="geometry" />
        </mxCell>
        <mxCell id="KqVxqA2QlJHIxRDLTxVt-17" value="&lt;font style=&quot;color: light-dark(rgb(0, 0, 0), rgb(0, 0, 0));&quot;&gt;PROFESSOR&lt;/font&gt;" style="whiteSpace=wrap;html=1;fillColor=light-dark(#FFFFFF,#FFFFFF);" vertex="1" parent="1">
          <mxGeometry x="-130" y="520" width="120" height="60" as="geometry" />
        </mxCell>
        <mxCell id="KqVxqA2QlJHIxRDLTxVt-19" style="edgeStyle=orthogonalEdgeStyle;rounded=0;orthogonalLoop=1;jettySize=auto;html=1;exitX=0.5;exitY=1;exitDx=0;exitDy=0;" edge="1" parent="1" source="KqVxqA2QlJHIxRDLTxVt-13" target="KqVxqA2QlJHIxRDLTxVt-13">
          <mxGeometry relative="1" as="geometry" />
        </mxCell>
        <mxCell id="KqVxqA2QlJHIxRDLTxVt-20" value="&lt;font style=&quot;color: light-dark(rgb(0, 0, 0), rgb(0, 0, 0));&quot;&gt;PAGAR&lt;/font&gt;" style="rhombus;whiteSpace=wrap;html=1;fillColor=light-dark(#FFFFFF,#FFFFFF);" vertex="1" parent="1">
          <mxGeometry x="30" y="410" width="80" height="80" as="geometry" />
        </mxCell>
        <mxCell id="KqVxqA2QlJHIxRDLTxVt-25" style="edgeStyle=orthogonalEdgeStyle;rounded=0;orthogonalLoop=1;jettySize=auto;html=1;entryX=1;entryY=0.5;entryDx=0;entryDy=0;" edge="1" parent="1" source="KqVxqA2QlJHIxRDLTxVt-22" target="KqVxqA2QlJHIxRDLTxVt-20">
          <mxGeometry relative="1" as="geometry" />
        </mxCell>
        <mxCell id="KqVxqA2QlJHIxRDLTxVt-22" value="&lt;font style=&quot;color: light-dark(rgb(0, 0, 0), rgb(0, 0, 0));&quot;&gt;PAGAMAENTO&lt;/font&gt;" style="whiteSpace=wrap;html=1;fillColor=light-dark(#FFFFFF,#FFFFFF);" vertex="1" parent="1">
          <mxGeometry x="190" y="420" width="120" height="60" as="geometry" />
        </mxCell>
        <mxCell id="KqVxqA2QlJHIxRDLTxVt-30" value="" style="edgeStyle=orthogonalEdgeStyle;rounded=0;orthogonalLoop=1;jettySize=auto;html=1;" edge="1" parent="1" source="KqVxqA2QlJHIxRDLTxVt-26" target="KqVxqA2QlJHIxRDLTxVt-28">
          <mxGeometry relative="1" as="geometry">
            <Array as="points">
              <mxPoint x="850" y="115" />
            </Array>
          </mxGeometry>
        </mxCell>
        <mxCell id="KqVxqA2QlJHIxRDLTxVt-32" value="" style="edgeStyle=orthogonalEdgeStyle;rounded=0;orthogonalLoop=1;jettySize=auto;html=1;" edge="1" parent="1" source="KqVxqA2QlJHIxRDLTxVt-26" target="KqVxqA2QlJHIxRDLTxVt-31">
          <mxGeometry relative="1" as="geometry" />
        </mxCell>
        <mxCell id="KqVxqA2QlJHIxRDLTxVt-26" value="&lt;font style=&quot;color: light-dark(rgb(0, 0, 0), rgb(0, 0, 0));&quot;&gt;TURMA&lt;/font&gt;" style="whiteSpace=wrap;html=1;fillColor=light-dark(#FFFFFF,#FFFFFF);" vertex="1" parent="1">
          <mxGeometry x="760" y="190" width="120" height="60" as="geometry" />
        </mxCell>
        <mxCell id="KqVxqA2QlJHIxRDLTxVt-28" value="&lt;font style=&quot;color: light-dark(rgb(0, 0, 0), rgb(0, 0, 0));&quot;&gt;PERÍODO&lt;/font&gt;" style="whiteSpace=wrap;html=1;fillColor=light-dark(#FFFFFF,#FFFFFF);" vertex="1" parent="1">
          <mxGeometry x="1000" y="90" width="120" height="50" as="geometry" />
        </mxCell>
        <mxCell id="KqVxqA2QlJHIxRDLTxVt-34" value="" style="edgeStyle=orthogonalEdgeStyle;rounded=0;orthogonalLoop=1;jettySize=auto;html=1;" edge="1" parent="1" source="KqVxqA2QlJHIxRDLTxVt-31" target="KqVxqA2QlJHIxRDLTxVt-33">
          <mxGeometry relative="1" as="geometry" />
        </mxCell>
        <mxCell id="KqVxqA2QlJHIxRDLTxVt-31" value="&lt;font style=&quot;color: light-dark(rgb(0, 0, 0), rgb(0, 0, 0));&quot;&gt;MÓDULO&lt;/font&gt;" style="whiteSpace=wrap;html=1;fillColor=light-dark(#FFFFFF,#FFFFFF);" vertex="1" parent="1">
          <mxGeometry x="1000" y="190" width="120" height="60" as="geometry" />
        </mxCell>
        <mxCell id="KqVxqA2QlJHIxRDLTxVt-33" value="&lt;font style=&quot;color: light-dark(rgb(0, 0, 0), rgb(0, 0, 0));&quot;&gt;NÍVEL&lt;/font&gt;" style="whiteSpace=wrap;html=1;fillColor=light-dark(#FFFFFF,#FFFFFF);" vertex="1" parent="1">
          <mxGeometry x="1180" y="190" width="120" height="60" as="geometry" />
        </mxCell>
        <mxCell id="KqVxqA2QlJHIxRDLTxVt-38" value="" style="edgeStyle=orthogonalEdgeStyle;rounded=0;orthogonalLoop=1;jettySize=auto;html=1;" edge="1" parent="1" source="KqVxqA2QlJHIxRDLTxVt-35" target="KqVxqA2QlJHIxRDLTxVt-37">
          <mxGeometry relative="1" as="geometry" />
        </mxCell>
        <mxCell id="KqVxqA2QlJHIxRDLTxVt-35" value="&lt;font style=&quot;color: light-dark(rgb(0, 0, 0), rgb(0, 0, 0));&quot;&gt;COORDENADOR&lt;/font&gt;" style="whiteSpace=wrap;html=1;fillColor=light-dark(#FFFFFF,#FFFFFF);" vertex="1" parent="1">
          <mxGeometry x="260" y="600" width="120" height="60" as="geometry" />
        </mxCell>
        <mxCell id="KqVxqA2QlJHIxRDLTxVt-39" style="edgeStyle=orthogonalEdgeStyle;rounded=0;orthogonalLoop=1;jettySize=auto;html=1;entryX=0;entryY=0.5;entryDx=0;entryDy=0;" edge="1" parent="1" source="KqVxqA2QlJHIxRDLTxVt-37" target="KqVxqA2QlJHIxRDLTxVt-5">
          <mxGeometry relative="1" as="geometry">
            <mxPoint x="620" y="50" as="targetPoint" />
            <Array as="points">
              <mxPoint x="710" y="-50" />
            </Array>
          </mxGeometry>
        </mxCell>
        <mxCell id="KqVxqA2QlJHIxRDLTxVt-37" value="&lt;font style=&quot;color: light-dark(rgb(0, 0, 0), rgb(0, 0, 0));&quot;&gt;COORDENA&lt;/font&gt;" style="rhombus;whiteSpace=wrap;html=1;fillColor=light-dark(#FFFFFF,#FFFFFF);" vertex="1" parent="1">
          <mxGeometry x="670" y="590" width="80" height="80" as="geometry" />
        </mxCell>
        <mxCell id="KqVxqA2QlJHIxRDLTxVt-62" style="edgeStyle=orthogonalEdgeStyle;rounded=0;orthogonalLoop=1;jettySize=auto;html=1;entryX=0.5;entryY=1;entryDx=0;entryDy=0;" edge="1" parent="1" source="KqVxqA2QlJHIxRDLTxVt-41" target="KqVxqA2QlJHIxRDLTxVt-26">
          <mxGeometry relative="1" as="geometry" />
        </mxCell>
        <mxCell id="KqVxqA2QlJHIxRDLTxVt-41" value="&lt;font style=&quot;color: light-dark(rgb(0, 0, 0), rgb(0, 0, 0));&quot;&gt;LECIONA&lt;/font&gt;" style="rhombus;whiteSpace=wrap;html=1;fillColor=light-dark(#FFFFFF,#FFFFFF);" vertex="1" parent="1">
          <mxGeometry x="780" y="510" width="80" height="80" as="geometry" />
        </mxCell>
        <mxCell id="KqVxqA2QlJHIxRDLTxVt-48" value="" style="edgeStyle=orthogonalEdgeStyle;rounded=0;orthogonalLoop=1;jettySize=auto;html=1;" edge="1" parent="1" source="KqVxqA2QlJHIxRDLTxVt-45" target="KqVxqA2QlJHIxRDLTxVt-47">
          <mxGeometry relative="1" as="geometry" />
        </mxCell>
        <mxCell id="KqVxqA2QlJHIxRDLTxVt-45" value="&lt;font style=&quot;color: light-dark(rgb(0, 0, 0), rgb(0, 0, 0));&quot;&gt;OFERECE&lt;/font&gt;" style="rhombus;whiteSpace=wrap;html=1;fillColor=light-dark(#FFFFFF,#FFFFFF);" vertex="1" parent="1">
          <mxGeometry x="410" y="-80" width="80" height="80" as="geometry" />
        </mxCell>
        <mxCell id="KqVxqA2QlJHIxRDLTxVt-50" style="edgeStyle=orthogonalEdgeStyle;rounded=0;orthogonalLoop=1;jettySize=auto;html=1;entryX=0.75;entryY=0;entryDx=0;entryDy=0;" edge="1" parent="1" source="KqVxqA2QlJHIxRDLTxVt-47" target="KqVxqA2QlJHIxRDLTxVt-13">
          <mxGeometry relative="1" as="geometry" />
        </mxCell>
        <mxCell id="KqVxqA2QlJHIxRDLTxVt-47" value="&lt;font style=&quot;color: light-dark(rgb(0, 0, 0), rgb(0, 0, 0));&quot;&gt;BOLSA&lt;/font&gt;" style="whiteSpace=wrap;html=1;fillColor=light-dark(#FFFFFF,#FFFFFF);" vertex="1" parent="1">
          <mxGeometry x="390" y="50" width="120" height="60" as="geometry" />
        </mxCell>
        <mxCell id="KqVxqA2QlJHIxRDLTxVt-55" style="edgeStyle=orthogonalEdgeStyle;rounded=0;orthogonalLoop=1;jettySize=auto;html=1;entryX=0;entryY=0.5;entryDx=0;entryDy=0;" edge="1" parent="1" source="KqVxqA2QlJHIxRDLTxVt-51" target="KqVxqA2QlJHIxRDLTxVt-26">
          <mxGeometry relative="1" as="geometry" />
        </mxCell>
        <mxCell id="KqVxqA2QlJHIxRDLTxVt-57" value="" style="edgeStyle=orthogonalEdgeStyle;rounded=0;orthogonalLoop=1;jettySize=auto;html=1;" edge="1" parent="1" source="KqVxqA2QlJHIxRDLTxVt-51" target="KqVxqA2QlJHIxRDLTxVt-56">
          <mxGeometry relative="1" as="geometry" />
        </mxCell>
        <mxCell id="KqVxqA2QlJHIxRDLTxVt-58" value="" style="edgeStyle=orthogonalEdgeStyle;rounded=0;orthogonalLoop=1;jettySize=auto;html=1;" edge="1" parent="1" source="KqVxqA2QlJHIxRDLTxVt-51" target="KqVxqA2QlJHIxRDLTxVt-56">
          <mxGeometry relative="1" as="geometry" />
        </mxCell>
        <mxCell id="KqVxqA2QlJHIxRDLTxVt-60" value="" style="edgeStyle=orthogonalEdgeStyle;rounded=0;orthogonalLoop=1;jettySize=auto;html=1;" edge="1" parent="1" source="KqVxqA2QlJHIxRDLTxVt-51" target="KqVxqA2QlJHIxRDLTxVt-59">
          <mxGeometry relative="1" as="geometry" />
        </mxCell>
        <mxCell id="KqVxqA2QlJHIxRDLTxVt-51" value="&lt;font style=&quot;color: light-dark(rgb(0, 0, 0), rgb(0, 0, 0));&quot;&gt;HISTÓRICO&lt;/font&gt;" style="whiteSpace=wrap;html=1;fillColor=light-dark(#FFFFFF,#FFFFFF);" vertex="1" parent="1">
          <mxGeometry x="430" y="190" width="120" height="60" as="geometry" />
        </mxCell>
        <mxCell id="KqVxqA2QlJHIxRDLTxVt-56" value="&lt;font style=&quot;color: light-dark(rgb(0, 0, 0), rgb(0, 0, 0));&quot;&gt;AVALIAÇÃO&lt;/font&gt;" style="whiteSpace=wrap;html=1;fillColor=light-dark(#FFFFFF,#FFFFFF);" vertex="1" parent="1">
          <mxGeometry x="320" y="310" width="120" height="60" as="geometry" />
        </mxCell>
        <mxCell id="KqVxqA2QlJHIxRDLTxVt-59" value="&lt;font style=&quot;color: light-dark(rgb(0, 0, 0), rgb(0, 0, 0));&quot;&gt;FREQUÊNCIA&lt;/font&gt;" style="whiteSpace=wrap;html=1;fillColor=light-dark(#FFFFFF,#FFFFFF);" vertex="1" parent="1">
          <mxGeometry x="540" y="310" width="120" height="60" as="geometry" />
        </mxCell>
        <mxCell id="KqVxqA2QlJHIxRDLTxVt-63" value="(0, N)" style="text;html=1;align=center;verticalAlign=middle;resizable=0;points=[];autosize=1;strokeColor=none;fillColor=none;" vertex="1" parent="1">
          <mxGeometry x="340" y="50" width="50" height="30" as="geometry" />
        </mxCell>
        <mxCell id="KqVxqA2QlJHIxRDLTxVt-64" value="(0, 1)" style="text;html=1;align=center;verticalAlign=middle;resizable=0;points=[];autosize=1;strokeColor=none;fillColor=none;rotation=90;" vertex="1" parent="1">
          <mxGeometry x="280" y="140" width="50" height="30" as="geometry" />
        </mxCell>
        <mxCell id="KqVxqA2QlJHIxRDLTxVt-65" value="(1, N)" style="text;html=1;align=center;verticalAlign=middle;resizable=0;points=[];autosize=1;strokeColor=none;fillColor=none;" vertex="1" parent="1">
          <mxGeometry x="550" y="190" width="50" height="30" as="geometry" />
        </mxCell>
        <mxCell id="KqVxqA2QlJHIxRDLTxVt-66" value="(1)" style="text;html=1;align=center;verticalAlign=middle;resizable=0;points=[];autosize=1;strokeColor=none;fillColor=none;" vertex="1" parent="1">
          <mxGeometry x="725" y="190" width="40" height="30" as="geometry" />
        </mxCell>
        <mxCell id="KqVxqA2QlJHIxRDLTxVt-68" value="(1)" style="text;html=1;align=center;verticalAlign=middle;resizable=0;points=[];autosize=1;strokeColor=none;fillColor=none;" vertex="1" parent="1">
          <mxGeometry x="300" y="190" width="40" height="30" as="geometry" />
        </mxCell>
        <mxCell id="KqVxqA2QlJHIxRDLTxVt-69" value="(1, N)" style="text;html=1;align=center;verticalAlign=middle;resizable=0;points=[];autosize=1;strokeColor=none;fillColor=none;" vertex="1" parent="1">
          <mxGeometry x="380" y="190" width="50" height="30" as="geometry" />
        </mxCell>
        <mxCell id="KqVxqA2QlJHIxRDLTxVt-70" value="(1)" style="text;html=1;align=center;verticalAlign=middle;resizable=0;points=[];autosize=1;strokeColor=none;fillColor=none;rotation=90;" vertex="1" parent="1">
          <mxGeometry x="250" y="258" width="40" height="30" as="geometry" />
        </mxCell>
        <mxCell id="KqVxqA2QlJHIxRDLTxVt-71" value="(0, N)" style="text;html=1;align=center;verticalAlign=middle;resizable=0;points=[];autosize=1;strokeColor=none;fillColor=none;rotation=90;" vertex="1" parent="1">
          <mxGeometry x="245" y="370" width="50" height="30" as="geometry" />
        </mxCell>
        <mxCell id="KqVxqA2QlJHIxRDLTxVt-73" value="(1)" style="text;html=1;align=center;verticalAlign=middle;resizable=0;points=[];autosize=1;strokeColor=none;fillColor=none;" vertex="1" parent="1">
          <mxGeometry x="960" y="80" width="40" height="30" as="geometry" />
        </mxCell>
        <mxCell id="KqVxqA2QlJHIxRDLTxVt-74" value="(1)" style="text;html=1;align=center;verticalAlign=middle;resizable=0;points=[];autosize=1;strokeColor=none;fillColor=none;" vertex="1" parent="1">
          <mxGeometry x="960" y="190" width="40" height="30" as="geometry" />
        </mxCell>
        <mxCell id="KqVxqA2QlJHIxRDLTxVt-75" value="(0, N)" style="text;html=1;align=center;verticalAlign=middle;resizable=0;points=[];autosize=1;strokeColor=none;fillColor=none;rotation=-90;" vertex="1" parent="1">
          <mxGeometry x="840" y="150" width="50" height="30" as="geometry" />
        </mxCell>
        <mxCell id="KqVxqA2QlJHIxRDLTxVt-77" value="(0, N)" style="text;html=1;align=center;verticalAlign=middle;resizable=0;points=[];autosize=1;strokeColor=none;fillColor=none;rotation=0;" vertex="1" parent="1">
          <mxGeometry x="880" y="190" width="50" height="30" as="geometry" />
        </mxCell>
      </root>
    </mxGraphModel>
  </diagram>
</mxfile>
